<?xml version="1.0" encoding="utf-8"?>
<!-- Generator: Adobe Illustrator 16.0.4, SVG Export Plug-In . SVG Version: 6.00 Build 0)  -->
<!DOCTYPE svg PUBLIC "-//W3C//DTD SVG 1.1//EN" "http://www.w3.org/Graphics/SVG/1.1/DTD/svg11.dtd">
<svg version="1.1" id="Layer_1" xmlns="http://www.w3.org/2000/svg" xmlns:xlink="http://www.w3.org/1999/xlink" x="0px" y="0px"
	 width="500px" height="500px" viewBox="0 0 500 500" enable-background="new 0 0 500 500" xml:space="preserve">
<g>
	<path id="tail" fill="#E1D6C4" d="M297.088,268.726c4.408-0.802,119.323-56.945,136.103-44.069
		c16.774,12.883-1.977,19.939,0.966,27.76c2.944,7.806,51.893-2.654,54.781,17.32c2.891,19.969-91.219,15.901-89.743,23.979
		c1.476,8.083,82.612-9.017,84.298,12.688c1.687,21.705-54.84,3.193-51.678,24.622c3.158,21.436,41.043,24.116,29.835,37.553
		c-11.21,13.431-174.109-62.534-174.109-62.534L297.088,268.726z"/>
	<g id="legs">
		<g>
			<path fill="#231F20" d="M183.708,469.419c-0.723,0-1.457-0.181-2.138-0.555c-2.143-1.176-2.921-3.878-1.74-6.018l12.59-22.855
				l3.854-121.288c0.08-2.444,2.037-4.521,4.57-4.287c2.446,0.077,4.369,2.126,4.287,4.572l-3.885,122.346
				c-0.021,0.699-0.208,1.384-0.547,2.002l-13.107,23.791C186.786,468.589,185.27,469.419,183.708,469.419z"/>
			<path fill="#231F20" d="M164.779,463.108c-1.568,0-3.088-0.837-3.896-2.313c-1.17-2.146-0.381-4.841,1.77-6.011l32.043-17.48
				c1.218-0.667,2.675-0.721,3.929-0.159l27.189,12.142c2.234,0.996,3.237,3.62,2.241,5.858c-0.999,2.229-3.614,3.228-5.856,2.236
				l-25.183-11.248l-30.118,16.436C166.223,462.936,165.496,463.108,164.779,463.108z"/>
		</g>
		<g>
			<path fill="#231F20" d="M273.443,474.759c-0.502,0-1.013-0.082-1.511-0.27c-2.301-0.832-3.489-3.375-2.654-5.674l9.439-26.062
				L259.23,321.535c-0.386-2.416,1.258-4.687,3.674-5.075c2.391-0.396,4.694,1.254,5.08,3.67l19.668,122.348
				c0.117,0.748,0.047,1.501-0.213,2.215l-9.83,27.143C276.959,473.636,275.259,474.759,273.443,474.759z"/>
			<path fill="#231F20" d="M251.236,465.097c-1.57,0-3.09-0.837-3.897-2.313c-1.169-2.146-0.381-4.841,1.771-6.011l32.042-17.48
				c1.219-0.667,2.676-0.721,3.93-0.159l27.188,12.141c2.233,0.997,3.239,3.621,2.24,5.859c-1.001,2.229-3.608,3.228-5.854,2.236
				l-25.184-11.248l-30.117,16.436C252.679,464.924,251.952,465.097,251.236,465.097z"/>
		</g>
	</g>
	<path id="body" fill="#E1D6C4" d="M338.238,212.412c0,67.201-7.021,121.674-100.622,121.674
		c-93.594,0-100.618-54.473-100.618-121.674c0-67.203,15.494-121.676,100.618-121.676
		C322.745,90.736,338.238,145.209,338.238,212.412z"/>
	<g id="beak">
		<polygon id="beak_x5F_upper" fill="#E3BD22" points="143.318,167.185 8.568,236.928 201.24,233.383 		"/>
		<polygon id="beak_x5F_lower" fill="#CAA52D" points="201.24,233.383 144.503,273.893 8.568,236.928 		"/>
	</g>
	<g id="eye">
		<path fill="#FFFFFF" d="M262.154,167.185c0,23.118-18.737,41.854-41.855,41.854c-23.115,0-41.852-18.737-41.852-41.854
			c0-23.113,18.737-41.854,41.852-41.854C243.417,125.331,262.154,144.072,262.154,167.185z"/>
		<g>
			<path fill="#231F20" d="M235.341,167.185c0,12.564-10.181,22.746-22.741,22.746c-12.557,0-22.741-10.181-22.741-22.746
				c0-12.558,10.184-22.739,22.741-22.739C225.16,144.446,235.341,154.627,235.341,167.185z"/>
			<g>
				<path fill="#FFFFFF" d="M224.131,157.35c0,5.438-4.402,9.835-9.831,9.835c-5.431,0-9.835-4.397-9.835-9.835
					c0-5.431,4.404-9.828,9.835-9.828C219.729,147.522,224.131,151.919,224.131,157.35z"/>
				<path fill="#FFFFFF" d="M206.018,170.696c0,3.047-2.467,5.527-5.527,5.527c-3.059,0-5.529-2.479-5.529-5.527
					c0-3.055,2.47-5.527,5.529-5.527C203.551,165.169,206.018,167.641,206.018,170.696z"/>
			</g>
		</g>
	</g>
	<path id="wing" fill="#C7BCAB" d="M302.062,227.69c-77.775-21.034-89.124,1.677-80.865,57.228
		c8.251,55.546,53.486,69.855,56.975,36.744c35.146,24.212,64.846-2.281,37.904-35.074
		C363.894,290.003,379.84,248.73,302.062,227.69z"/>
	<g id="hair">
		<path fill="#E1D6C4" d="M264.849,109.068c21.251-55.102-15.619-83.66-15.619-83.66s24.396,51.442,0.783,81
			C264.849,109.068,264.849,109.068,264.849,109.068z"/>
		<path fill="#E1D6C4" d="M253.479,105.073c6.449-58.711-36.498-76.884-36.498-76.884s36.742,43.482,21.469,78.109
			C253.479,105.073,253.479,105.073,253.479,105.073z"/>
		<path fill="#E1D6C4" d="M254.271,113.128c-13.722-57.462-60.287-60.091-60.287-60.091s49.257,28.556,46.551,66.31
			C254.271,113.128,254.271,113.128,254.271,113.128z"/>
		<path fill="#E1D6C4" d="M231.767,115.989c-9.786-40.975-42.996-42.851-42.996-42.851s35.127,20.37,33.196,47.29
			C231.767,115.989,231.767,115.989,231.767,115.989z"/>
	</g>
</g>
</svg>
